<?xml version="1.0" encoding="UTF-8" standalone="no"?>
<!-- SPDX-FileCopyrightText: 2025 The midgard contributors.
     SPDX-License-Identifier: MPL-2.0
-->
<!DOCTYPE svg PUBLIC "-//W3C//DTD SVG 1.1//EN" "http://www.w3.org/Graphics/SVG/1.1/DTD/svg11.dtd">
<svg width="100%" height="100%" viewBox="0 0 4000 4000" version="1.1" xmlns="http://www.w3.org/2000/svg" xmlns:xlink="http://www.w3.org/1999/xlink" xml:space="preserve" xmlns:serif="http://www.serif.com/" style="fill-rule:evenodd;clip-rule:evenodd;stroke-linejoin:round;stroke-miterlimit:2;">
    <circle cx="2000" cy="2000" r="2000" style="fill:rgb(0,134,0);"/>
    <path d="M2000,-0c1103.83,-0 2000,896.17 2000,2000c0,1103.83 -896.17,2000 -2000,2000c-1103.83,0 -2000,-896.17 -2000,-2000c0,-1103.83 896.17,-2000 2000,-2000Zm0,88.889c-1054.77,-0 -1911.11,856.34 -1911.11,1911.11c-0,1054.77 856.34,1911.11 1911.11,1911.11c1054.77,0 1911.11,-856.34 1911.11,-1911.11c0,-1054.77 -856.34,-1911.11 -1911.11,-1911.11Z" style="fill:rgb(109,106,255);"/>
    <circle cx="2000" cy="2000" r="1666" style="fill:rgb(255,120,0);"/>
    <g>
        <g>
            <path d="M3178.03,821.958c-314.665,-314.665 -733.025,-487.954 -1178.04,-487.954c-445.01,-0 -863.37,173.289 -1178.03,487.954c-314.678,314.672 -487.967,733.039 -487.967,1178.04c-0,445.003 173.289,863.37 487.967,1178.04c314.659,314.665 733.019,487.954 1178.03,487.954c445.01,0 863.37,-173.289 1178.04,-487.954c314.672,-314.672 487.961,-733.039 487.961,-1178.04c0,-445.003 -173.289,-863.37 -487.961,-1178.04Zm-1178.04,2711.29c-829.887,0 -1507.82,-662.76 -1532.48,-1486.78l185.928,-0c6.546,196.854 54.691,385.352 143.529,560.965c11.688,23.103 35.038,36.424 59.28,36.424c10.08,0 20.304,-2.303 29.909,-7.165c32.715,-16.549 45.809,-56.474 29.266,-89.195c-86.313,-170.622 -130.078,-354.832 -130.078,-547.495c0,-466.85 260.462,-884.839 679.746,-1090.85c32.897,-16.165 46.459,-55.941 30.3,-88.844c-16.178,-32.904 -55.941,-46.46 -88.851,-30.301c-222.748,109.442 -410.993,278.196 -544.396,488.02c-121.664,191.381 -192.384,409.575 -206.766,635.688l-186.156,0c44.911,-805.444 714.296,-1446.96 1530.77,-1446.96c240.658,-0 468.509,55.804 671.396,155.035l-95.052,159.871c-177.748,-84.101 -373.938,-129.056 -576.344,-129.056c-36.652,-0 -66.373,29.714 -66.373,66.373c-0,36.658 29.721,66.373 66.373,66.373c364.124,-0 705.933,161.334 937.787,442.627c13.126,15.925 32.116,24.164 51.262,24.164c14.863,-0 29.812,-4.972 42.177,-15.157c28.289,-23.317 32.317,-65.149 9,-93.432c-99.27,-120.433 -216.768,-220.94 -346.794,-299.086l94.649,-159.187c446.09,268.414 745.169,757.274 745.169,1314.73c0,845.434 -687.816,1533.25 -1533.25,1533.25Z" style="fill-rule:nonzero;"/>
        </g>
        <g>
            <path d="M3223.3,1434.48c-9.768,-21.098 -20.239,-42.249 -31.114,-62.839c-17.109,-32.416 -57.281,-44.826 -89.683,-27.704c-32.416,17.115 -44.826,57.269 -27.704,89.684c9.807,18.56 19.243,37.608 28.048,56.631c11.22,24.241 35.214,38.506 60.276,38.506c9.332,0 18.814,-1.978 27.847,-6.156c33.254,-15.41 47.734,-54.861 32.33,-88.122Z" style="fill-rule:nonzero;"/>
        </g>
        <g>
            <path d="M3281.03,1933.63c-36.652,-0 -66.373,29.715 -66.373,66.373c0,18.183 -0.475,36.248 -1.275,54.236l-185.062,-22.569c0.325,-10.536 0.481,-21.085 0.481,-31.667c0,-377.96 -206.603,-724.747 -539.177,-905.033c-32.233,-17.467 -72.517,-5.505 -89.984,26.721c-17.473,32.227 -5.505,72.517 26.715,89.983c289.734,157.047 469.707,459.119 469.707,788.329c-0,295.35 -145.56,571.671 -389.362,739.143c-30.222,20.753 -37.888,62.078 -17.122,92.293c12.866,18.73 33.632,28.797 54.763,28.797c12.951,0 26.044,-3.781 37.524,-11.668c234.177,-160.867 389.31,-409.25 433.745,-684.725l184.75,22.537c-89.938,581.602 -593.96,1028.27 -1200.36,1028.27c-109.559,-0 -217.497,-14.617 -321.407,-43.036l62.768,-175.743c82.668,21.475 169.332,32.936 258.632,32.936c36.652,-0 66.374,-29.715 66.374,-66.373c-0,-36.659 -29.722,-66.373 -66.374,-66.373c-494.085,-0 -896.052,-401.967 -896.052,-896.052c0,-36.659 -29.721,-66.374 -66.373,-66.374c-36.652,0 -66.373,29.715 -66.373,66.374c0,431.343 266.853,801.467 644.116,954.127l-62.664,175.463c-76.525,-30.319 -150.128,-68.507 -219.696,-114.315c-30.619,-20.155 -71.768,-11.689 -91.942,18.937c-20.162,30.619 -11.682,71.775 18.944,91.942c219.84,144.74 475.746,221.252 740.047,221.252c742.963,0 1347.4,-604.437 1347.4,-1347.4c0,-36.671 -29.721,-66.386 -66.373,-66.386Z" style="fill-rule:nonzero;"/>
        </g>
        <g>
            <path d="M2021.88,1957.63l0,-67.219c29.93,2.304 38.676,17.031 53.872,17.031c20.259,0 28.549,-25.322 28.549,-37.752c0,-31.771 -53.871,-39.131 -82.414,-40.055l-0,-11.506c-0,-6.443 -8.747,-12.43 -17.5,-12.43c-10.126,0 -17.493,5.987 -17.493,12.43l0,12.892c-48.808,6.911 -92.085,34.992 -92.085,93.465c-0,58.935 49.726,78.731 92.085,94.851l0,74.586c-34.075,-5.987 -49.726,-33.151 -69.06,-33.151c-17.493,0 -31.309,23.018 -31.309,38.676c-0,29.461 45.118,58.011 100.369,59.859l0,11.512c0,6.43 7.367,12.417 17.493,12.417c8.74,0 17.5,-5.987 17.5,-12.43l-0,-13.354c53.871,-8.746 90.699,-43.283 90.699,-100.37c-0.007,-62.156 -48.815,-83.801 -90.706,-99.452Zm-30.398,-11.043c-17.493,-7.367 -29.461,-15.658 -29.461,-29.006c0,-11.05 8.74,-21.638 29.461,-25.777l0,54.783Zm25.797,146.874l0,-61.694c16.576,7.822 28.081,17.493 28.081,32.689c0,16.569 -12.43,25.315 -28.081,29.005Z" style="fill-rule:nonzero;"/>
        </g>
        <g>
            <path d="M2637.19,1933.63l-231.02,-0c-31.829,-195.475 -201.852,-345.148 -406.171,-345.148c-226.914,0 -411.521,184.607 -411.521,411.521c0,226.914 184.607,411.521 411.521,411.521c36.652,-0 66.373,-29.715 66.373,-66.373c0,-36.659 -29.721,-66.373 -66.373,-66.373c-153.714,-0 -278.775,-125.054 -278.775,-278.775c0,-153.714 125.054,-278.775 278.775,-278.775c153.714,0 278.775,125.054 278.775,278.775c-0,36.658 29.721,66.373 66.373,66.373l221.837,0c-32.975,283.61 -274.668,504.445 -566.985,504.445c-314.756,0 -570.818,-256.075 -570.818,-570.818c-0,-314.743 256.062,-570.818 570.818,-570.818c36.652,-0 66.373,-29.715 66.373,-66.373c0,-36.659 -29.721,-66.374 -66.373,-66.374c-111.739,0 -217.452,26.227 -311.372,72.777l-113.477,-157.118c128.64,-69.509 274.324,-108.153 424.849,-108.153c36.652,0 66.373,-29.714 66.373,-66.373c0,-36.658 -29.721,-66.373 -66.373,-66.373c-197.18,0 -388.782,55.961 -554.106,161.83c-160.899,103.031 -289.786,248.246 -372.741,419.935c-15.957,33.007 -2.122,72.692 30.886,88.636c9.306,4.503 19.139,6.632 28.836,6.632c24.665,-0 48.359,-13.817 59.813,-37.518c63.334,-131.087 157.235,-242.318 270.484,-326.958l112.344,155.556c-169.444,128.594 -279.081,332.067 -279.081,560.692c0,387.949 315.622,703.571 703.572,703.571c387.949,0 703.564,-315.622 703.564,-703.571c0,-36.658 -29.728,-66.373 -66.38,-66.373Z" style="fill-rule:nonzero;"/>
        </g>
    </g>
    <g>
        <circle cx="2000.05" cy="2000.05" r="613.322" style="fill:rgb(89,216,255);"/>
        <path d="M2550.13,2270.83c-63.057,38.167 -133.998,65.667 -210.941,79.234c-72.903,12.857 -145.067,12.256 -213.95,-0.002c0.933,-4.513 2.093,-8.971 2.534,-13.597l2.427,-25.563c33.278,-11.837 57.028,-42.33 59.588,-78.531l3.746,-53.072c3.117,-44.216 -17.498,-87.465 -53.8,-112.881l-10.823,-7.58c-21.449,-15.017 -46.616,-22.951 -72.787,-22.951c-7.365,0 -14.779,0.649 -22.035,1.928l-0.76,0.131l-66.156,-46.324c-28.591,-20.019 -62.149,-30.599 -97.046,-30.599c-9.821,-0 -19.705,0.863 -29.382,2.572l-84.197,14.846l4.176,-0.737c17.458,-3.08 32.834,-13.324 42.4,-28.249l126.656,-197.642l13.129,-2.313c30.792,-5.433 55.969,-27.262 65.704,-56.969l4.02,-12.28c10.264,-31.334 1.507,-64.339 -20.543,-86.245c14.482,-14.324 21.572,-35.169 17.876,-56.14l-4.629,-26.263c-2.921,-16.572 -12.305,-31.307 -26.089,-40.957c-10.742,-7.519 -23.463,-11.477 -36.396,-11.477c-3.669,0 -7.355,0.317 -11.019,0.965l-151.221,26.671c-6.823,1.202 -13.404,3.515 -19.482,6.848l-38.553,21.137c-10.17,-6.752 -22.285,-10.594 -35.013,-10.596c-3.659,0 -7.363,0.317 -11.091,0.972l-7.988,1.41c4.495,-10.553 8.953,-21.124 14.02,-31.393c-22.156,13.411 -43.083,28.43 -63.179,44.376c-0.522,0.223 -1.073,0.384 -1.595,0.609c-2.907,2.318 -5.651,4.809 -8.505,7.179c-1.017,0.844 -2.017,1.707 -3.031,2.558c-2.865,2.412 -5.564,4.988 -8.344,7.486c-0.06,-0.084 -0.124,-0.176 -0.186,-0.26c-156.869,136.618 -240.375,349.64 -201.622,569.428c58.817,333.579 376.924,556.319 710.506,497.502c12.266,-2.162 24.321,-4.807 36.277,-7.662c0.594,-0.143 1.18,-0.297 1.772,-0.44c11.295,-2.734 22.445,-5.769 33.447,-9.099c0.796,-0.24 1.595,-0.468 2.392,-0.71c22.767,-6.996 44.889,-15.227 66.305,-24.635c1.507,-0.661 2.991,-1.356 4.485,-2.029c9.107,-4.089 18.084,-8.384 26.929,-12.886c1.6,-0.814 3.211,-1.603 4.801,-2.427c10.017,-5.21 19.92,-10.588 29.578,-16.308c-0.012,-0.017 -0.027,-0.037 -0.039,-0.054c103.205,-61.172 185.413,-151.125 237.634,-256.981Z" style="fill:rgb(0,195,240);fill-rule:nonzero;"/>
        <path d="M2513.76,1664.85l-4.003,1.511l-32.856,5.792c-4.866,0.856 -9.779,1.284 -14.687,1.284c-8.142,-0 -16.266,-1.173 -24.12,-3.511l-18.874,-5.613c-7.854,-2.338 -15.976,-3.51 -24.115,-3.51c-4.908,-0 -9.826,0.428 -14.693,1.284l-59.113,10.425l-14.312,54.95c-4.171,16.011 -17.292,28.118 -33.585,30.99l12.951,-2.283c7.305,-1.287 14.677,-1.928 22.035,-1.928c15.456,0 30.851,2.826 45.398,8.402l44.844,17.183c7.375,2.826 15.061,4.201 22.688,4.201c16.043,0 31.822,-6.091 43.837,-17.569l12.217,-11.67c9.056,-8.653 20.471,-14.428 32.808,-16.607l30.117,-5.309l6.249,0.609l-32.786,-68.631Z" style="fill:rgb(0,195,240);fill-rule:nonzero;"/>
        <path d="M2538.17,2291.22c-1.425,0.094 -2.843,0.144 -4.26,0.144c-21.362,-0 -41.646,-10.71 -53.609,-28.996l-46.039,-70.36c-12.546,-19.173 -21.068,-40.696 -25.046,-63.26l-12.332,-69.94c-5.428,-30.782 -32.198,-52.439 -62.407,-52.439c-3.659,0 -7.367,0.317 -11.093,0.975l-1.558,0.275c-7.039,1.239 -14.136,1.855 -21.206,1.855c-19.084,0 -38.007,-4.473 -55.208,-13.186l-3.533,-1.788c-34.295,-17.377 -58.408,-49.886 -65.083,-87.747c-2.699,-15.303 -2.454,-30.98 0.728,-46.192l9.697,-46.413c5.304,-25.394 25.538,-45 51.086,-49.507l13.008,-2.296l-13.651,2.407c-2.486,0.438 -4.958,0.651 -7.397,0.651c-20.14,-0 -37.989,-14.441 -41.606,-34.959l-5.356,-30.374c-2.592,-14.718 2.85,-29.289 13.579,-38.85c2.568,0.235 5.082,0.685 7.704,0.685c4.893,-0 9.816,-0.428 14.628,-1.269c22.364,-3.956 41.752,-16.313 54.703,-34.82c12.973,-18.537 17.933,-41.01 13.977,-63.287l-7.337,-41.581c-0.893,-5.087 -2.237,-9.995 -3.966,-14.695l12.298,-17.57l13.601,-22.252c-18.445,-10.472 -37.474,-19.938 -56.956,-28.475l-9.75,15.949l-3.505,5.005c-10.737,-4.898 -22.493,-7.875 -34.954,-7.875c-5.019,0 -10.081,0.453 -15.034,1.349c-22.007,3.891 -41.393,16.251 -54.349,34.755c-12.973,18.535 -17.933,41.01 -13.977,63.287l7.338,41.582c2.59,14.793 8.985,28.056 17.982,39.001c-16.251,22.594 -23.549,51.251 -18.467,80.072l5.358,30.382c1.816,10.299 5.074,20.026 9.544,28.984c-4.749,9.581 -8.339,19.88 -10.608,30.731l-9.697,46.402c-4.852,23.203 -5.225,46.819 -1.106,70.185c10.091,57.226 47.058,107.069 98.891,133.33l3.54,1.793c25.867,13.105 54.874,20.034 83.878,20.034c10.771,-0 21.614,-0.948 32.222,-2.818l1.558,-0.274l12.333,69.939c5.502,31.198 17.089,60.462 34.436,86.977l46.039,70.36c17.827,27.247 44.904,46.185 75.652,53.864c13.362,-19.141 25.501,-39.107 36.621,-59.665l-1.311,-0.085Z" style="fill:rgb(0,195,240);fill-rule:nonzero;"/>
        <path d="M2603.95,1893.45c-9.985,-56.633 -27.599,-109.97 -51.344,-159.376l-12.317,-1.2l-30.117,5.309c-12.335,2.175 -23.75,7.954 -32.806,16.608l-12.217,11.669c-17.727,16.939 -43.629,22.141 -66.525,13.369l-44.844,-17.181c-21.473,-8.231 -44.782,-10.467 -67.433,-6.472l-48.051,8.473c-25.548,4.505 -45.782,24.113 -51.086,49.508l-9.697,46.412c-3.182,15.212 -3.427,30.889 -0.728,46.193c6.675,37.863 30.788,70.372 65.084,87.746l3.532,1.789c23.576,11.944 50.391,15.919 76.414,11.33l1.558,-0.274c34.511,-6.086 67.416,16.958 73.502,51.466l12.332,69.94c3.978,22.567 12.501,44.087 25.046,63.26l46.039,70.359c12.758,19.5 34.974,30.385 57.872,28.856l1.311,0.086c63.507,-117.415 89.451,-256.208 64.475,-397.87Z" style="fill:rgb(180,255,135);fill-rule:nonzero;"/>
        <path d="M2302.48,1466.43l-13.602,22.253l-15.293,21.844c-4.057,5.791 -5.648,12.961 -4.421,19.927l7.805,44.248c2.672,15.145 -0.784,30.736 -9.606,43.335c-5.163,7.375 -11.974,13.446 -19.89,17.733l-40.231,18.545c-17.448,8.042 -27.282,26.834 -23.949,45.759l5.356,30.375c4.054,23.007 25.995,38.367 49.003,34.312l35.742,-6.303c16.293,-2.875 29.415,-14.982 33.588,-30.993l14.312,-54.95l59.113,-10.425c12.936,-2.281 26.221,-1.519 38.808,2.226l18.874,5.614c12.589,3.745 25.872,4.507 38.807,2.226l32.856,-5.791l4.003,-1.512c-53.901,-82.571 -126.715,-150.41 -211.275,-198.423Z" style="fill:rgb(180,255,135);fill-rule:nonzero;"/>
        <path d="M2103.35,2118.39l-10.829,-7.583c-13.787,-9.65 -30.839,-13.433 -47.409,-10.511l-9.389,1.655c-11.051,1.949 -22.416,-0.574 -31.604,-7.006l-73.333,-51.351c-22.975,-16.088 -51.395,-22.389 -79.019,-17.518l-88.172,15.549l0.003,-0l-12.37,83.414l9.26,52.521c2.917,16.531 13.443,30.726 28.418,38.313l71.362,36.156c14.974,7.588 25.5,21.78 28.42,38.313l12.344,70.016c4.918,27.898 15.39,54.522 30.795,78.294l41.97,64.762c5.524,8.529 15.548,13.02 25.59,11.468l0.166,-0.027c14.296,-2.206 23.981,-15.734 21.47,-29.978l-13.784,-78.183l38.033,-36.336c11.032,-10.536 17.897,-24.697 19.336,-39.884l5.082,-53.533c1.685,-11.352 10.445,-20.355 21.748,-22.349l13.089,-2.308c12.053,-2.125 21.107,-12.177 21.971,-24.385l3.745,-53.07c1.571,-22.23 -8.636,-43.654 -26.893,-56.439Z" style="fill:rgb(180,255,135);fill-rule:nonzero;"/>
        <path d="M2063.64,2335.69c-123.302,-35.451 -232.722,-108.921 -312.161,-209.23l9.008,51.099c2.916,16.53 13.443,30.725 28.417,38.313l71.362,36.156c14.975,7.587 25.501,21.78 28.42,38.313l12.345,70.016c4.918,27.898 15.39,54.522 30.795,78.293l41.969,64.762c5.525,8.53 15.549,13.02 25.59,11.469l0.166,-0.027c14.297,-2.207 23.982,-15.734 21.471,-29.979l-13.785,-78.182l38.034,-36.337c9.745,-9.306 15.989,-21.5 18.369,-34.666Z" style="fill:rgb(155,245,125);fill-rule:nonzero;"/>
        <path d="M1601.53,2022.23l57.642,1.319l-3.488,-27.317c-6.086,-34.508 16.956,-67.416 51.467,-73.502l42.56,-7.506l137.123,-213.966c3.216,-4.594 8.127,-7.721 13.651,-8.699l31.414,-5.539c7.681,-1.355 13.997,-6.828 16.426,-14.244l4.02,-12.271c3.397,-10.37 -1.652,-21.624 -11.659,-25.978l-56.393,-24.531c-14.316,-6.229 -14.407,-26.5 -0.153,-32.858l63.347,-28.255l-4.629,-26.262l-151.227,26.666l-97.911,53.678l-6.227,-35.317l-25.261,4.455c-22.092,3.897 -41.737,16.412 -54.606,34.791l-11.031,15.753c-6.699,9.567 -19.885,11.895 -29.454,5.193l-24.752,-17.332l-15.536,-0.633c-55.929,67.896 -97.129,147.498 -119.902,233.55l57.217,105.66c10.932,20.186 33.55,31.114 56.154,27.126l14.671,-2.585l17.032,22.967c11.66,15.729 29.932,25.187 49.505,25.637Z" style="fill:rgb(180,255,135);fill-rule:nonzero;"/>
        <path d="M1601.53,2022.23l57.642,1.319l-3.488,-27.317c-2.054,-11.65 -0.557,-23.02 3.349,-33.336c-13.247,-35.166 -23.588,-71.973 -30.349,-110.325c-16.689,-94.639 -10.279,-187.87 14.489,-274.439c-14.133,6.175 -26.554,15.922 -35.549,28.767l-11.032,15.753c-6.699,9.567 -19.885,11.895 -29.454,5.193l-24.751,-17.332l-15.051,-0.616c-2.828,3.429 -5.757,6.781 -8.51,10.272c-2.769,3.505 -5.552,6.996 -8.236,10.561c-7.216,9.561 -14.188,19.303 -20.835,29.268c-1.771,2.655 -3.476,5.344 -5.205,8.025c-6.019,9.332 -11.768,18.839 -17.283,28.487c-2.535,4.443 -4.96,8.948 -7.384,13.456c-4.08,7.58 -7.976,15.259 -11.739,23.012c-2.229,4.596 -4.525,9.156 -6.642,13.809c-5.114,11.239 -9.928,22.626 -14.364,34.182c-1.845,4.814 -3.443,9.735 -5.17,14.598c-2.731,7.694 -5.358,15.425 -7.785,23.24c-1.809,5.816 -3.531,11.664 -5.161,17.545c-0.685,2.459 -1.232,4.96 -1.885,7.429l57.021,105.301c10.932,20.187 33.551,31.112 56.155,27.126l14.67,-2.585l17.032,22.968c11.67,15.731 29.942,25.189 49.515,25.639Z" style="fill:rgb(155,245,125);fill-rule:nonzero;"/>
        <path d="M2623.53,1890.06c-29.368,-166.552 -121.834,-311.698 -260.372,-408.699c-138.538,-97.001 -306.552,-134.253 -473.107,-104.888c-166.549,29.368 -311.695,121.837 -408.699,260.372c-97.003,138.535 -134.25,306.555 -104.885,473.107c29.367,166.552 121.834,311.697 260.372,408.699c107.649,75.374 233.085,114.667 361.816,114.667c36.938,-0 74.155,-3.238 111.288,-9.784c166.552,-29.365 311.698,-121.834 408.699,-260.372c97.001,-138.538 134.253,-306.552 104.888,-473.102Zm-248.539,-206.82l6.137,34.805c1.697,9.621 10.062,16.388 19.502,16.388c1.143,-0 2.303,-0.102 3.466,-0.305c10.784,-1.902 17.985,-12.184 16.083,-22.967l-4.81,-27.268l17.115,5.092c15.459,4.596 32.022,5.549 47.902,2.746l24.439,-4.31c5.821,9.403 11.393,18.963 16.674,28.69l-14.722,2.595c-16.246,2.862 -31.134,10.403 -43.063,21.795l-12.216,11.669c-12.124,11.583 -30.08,15.19 -45.737,9.193l-44.842,-17.181c-11.506,-4.406 -23.467,-7.308 -35.597,-8.713c0.309,-0.977 0.626,-1.954 0.886,-2.954l11.103,-42.635l37.68,-6.64Zm-22.27,-160.545l-15.66,14.336c-8.08,7.394 -8.632,19.935 -1.237,28.012c3.909,4.272 9.26,6.439 14.631,6.439c4.782,0 9.578,-1.719 13.381,-5.202l20.375,-18.653c36.509,30.899 68.804,65.733 96.449,103.792l-7.154,1.264c-9.851,1.734 -20.123,1.148 -29.712,-1.705l-18.868,-5.613c-15.457,-4.596 -32.022,-5.549 -47.904,-2.748l-59.116,10.425c-7.637,1.345 -13.79,7.02 -15.747,14.526l-14.311,54.95c-2.207,8.481 -9.211,14.943 -17.839,16.464l-35.098,6.19l-0.002,-0l-0.643,0.113c-12.199,2.153 -23.883,-6.023 -26.033,-18.227l-5.356,-30.375c-1.771,-10.044 3.461,-20.041 12.723,-24.31l40.228,-18.545c0.386,-0.178 0.767,-0.368 1.141,-0.571c10.568,-5.725 19.801,-13.953 26.69,-23.797c11.922,-17.027 16.501,-37.677 12.894,-58.151l-7.805,-44.245c-0.311,-1.767 0.07,-3.548 1.074,-5.03l20.308,-28.066c10.247,6.296 20.348,12.914 30.285,19.873c4.147,2.907 8.246,5.858 12.306,8.854Zm-838.887,136.895c7.061,-10.086 14.426,-19.878 22.023,-29.434l19.962,13.977c8.968,6.279 19.843,8.693 30.622,6.788c10.778,-1.9 20.172,-7.886 26.448,-16.849l11.031,-15.756c9.92,-14.173 24.771,-23.631 41.809,-26.634l5.729,-1.01l6.457,36.619c1.697,9.621 10.061,16.387 19.502,16.387c1.143,-0 2.303,-0.099 3.466,-0.304c10.783,-1.9 17.985,-12.184 16.082,-22.968l-1.204,-6.83l82.578,-45.273l94.438,-16.651l-16.669,7.436c-13.881,6.192 -22.463,19.48 -22.391,34.677c0.069,15.202 8.773,28.407 22.708,34.471l56.395,24.533c0.628,0.275 0.942,0.973 0.73,1.623l-4.02,12.271c-0.154,0.465 -0.547,0.806 -1.03,0.89l-31.413,5.539c-10.781,1.9 -20.175,7.887 -26.453,16.853c-0.156,0.22 -0.305,0.445 -0.451,0.67l-132.432,206.647l-33.999,5.996c-45.22,7.976 -75.522,51.249 -67.549,96.47l0.621,3.53l-34.795,-0.797c-13.555,-0.312 -25.961,-6.734 -34.036,-17.621l-17.035,-22.968c-4.473,-6.034 -11.979,-9.017 -19.369,-7.714l-14.667,2.586c-14.223,2.506 -28.403,-4.342 -35.283,-17.043l-53.639,-99.059c17.872,-63.938 46.636,-125.068 85.834,-181.052Zm589.224,924.893c-34.82,6.138 -69.687,9.174 -104.321,9.171c-120.659,-0.002 -238.258,-36.839 -339.156,-107.488c-129.859,-90.928 -216.537,-226.982 -244.061,-383.104c-12.063,-68.418 -12.132,-137.096 -0.755,-203.599l32.01,59.114c15.019,27.735 45.974,42.687 77.037,37.212l2.597,-0.458l9.737,13.127c15.42,20.786 39.105,33.051 64.985,33.642l92.11,2.106c4.448,0.104 8.73,1.504 12.374,4.057l6.051,4.238c8.723,6.11 18.641,9.801 28.945,10.902l-8.931,58.705c-0.324,2.133 -0.299,4.305 0.074,6.428l9.26,52.52c3.976,22.557 18.549,42.205 38.984,52.558l71.362,36.156c9.358,4.742 16.03,13.74 17.851,24.071l12.345,70.016c5.41,30.679 16.743,59.49 33.684,85.631l41.967,64.762c8.473,13.072 22.978,20.798 38.37,20.795c2.336,0 4.696,-0.178 7.054,-0.542c12.225,-1.887 22.928,-8.468 30.129,-18.527c7.202,-10.058 9.987,-22.307 7.837,-34.491l-11.944,-67.732l30.362,-29.007c14.475,-13.826 23.488,-32.417 25.38,-52.35l5.017,-52.842c0.549,-2.751 2.729,-4.893 5.514,-5.385l13.092,-2.309c21.048,-3.71 36.799,-21.193 38.303,-42.513l3.746,-53.073c2.046,-29.011 -11.481,-57.396 -35.302,-74.078l-10.829,-7.582c-18.22,-12.758 -40.314,-17.659 -62.225,-13.795l-9.386,1.653c-5.903,1.046 -11.875,-0.277 -16.793,-3.723l-73.334,-51.351c-27.477,-19.237 -60.803,-26.624 -93.829,-20.803l-97.177,17.134c-5.905,1.044 -11.872,-0.279 -16.791,-3.723l-6.051,-4.238c-10.081,-7.058 -21.911,-10.939 -34.214,-11.219l-16.881,-0.386l-1.999,-11.34c-4.176,-23.688 11.696,-46.356 35.381,-50.534l22.129,-3.902l3.902,22.129c1.697,9.621 10.061,16.387 19.501,16.387c1.143,0 2.303,-0.101 3.466,-0.304c10.784,-1.902 17.985,-12.184 16.083,-22.967l-5.826,-33.052l133.328,-208.041c0.195,-0.218 0.462,-0.364 0.754,-0.416l31.414,-5.542c14.915,-2.627 27.109,-13.203 31.824,-27.593l4.02,-12.276c6.62,-20.211 -3.092,-41.848 -22.594,-50.331l-52.491,-22.834l59.462,-26.52c8.31,-3.704 13.03,-12.592 11.452,-21.548l-4.629,-26.263c-0.915,-5.177 -3.847,-9.784 -8.154,-12.799c-4.309,-3.016 -9.638,-4.199 -14.816,-3.283l-151.229,26.666c-2.132,0.376 -4.19,1.096 -6.088,2.142l-73.658,40.379l-1.424,-8.077c-0.916,-5.178 -3.847,-9.782 -8.154,-12.798c-4.307,-3.015 -9.641,-4.198 -14.817,-3.285l-25.258,4.455c-27.47,4.844 -51.407,20.096 -67.406,42.94l-11.031,15.756c-0.079,0.111 -0.314,0.448 -0.854,0.544c-0.539,0.099 -0.875,-0.141 -0.989,-0.22l-16.922,-11.85c87.883,-96.655 204.544,-161.221 335.297,-184.277c34.82,-6.138 69.687,-9.171 104.321,-9.171c95.586,-0 189.245,23.143 274.209,67.878l-17.892,24.729c-0.061,0.085 -0.118,0.166 -0.18,0.255c-7.123,10.173 -9.859,22.508 -7.701,34.741l7.805,44.248c1.771,10.042 -0.475,20.167 -6.324,28.522c-3.27,4.67 -7.614,8.599 -12.589,11.394l-39.587,18.25c-25.605,11.803 -40.068,39.441 -35.174,67.206l5.356,30.374c2.533,14.356 9.866,26.654 20.014,35.637c-10.514,10.991 -18.06,24.885 -21.338,40.569l-9.697,46.408c-3.711,17.76 -3.996,35.824 -0.846,53.693c7.718,43.775 35.997,81.901 75.649,101.991l3.53,1.789c27.223,13.792 58.77,18.467 88.82,13.171l1.558,-0.275c11.479,-2.024 23.05,0.544 32.594,7.226c9.544,6.68 15.915,16.684 17.938,28.156l12.333,69.939c4.47,25.352 13.883,49.131 27.979,70.672l46.039,70.357c10.596,16.192 26.293,27.935 44.122,33.781c-6.853,11.298 -14.069,22.433 -21.721,33.358c-90.915,129.872 -226.969,216.547 -383.089,244.076Zm-115.293,-174.293l13.784,78.183c0.362,2.043 -0.358,3.584 -1.026,4.515c-0.666,0.93 -1.893,2.11 -4.112,2.451c-2.31,0.361 -4.648,-0.685 -5.927,-2.654l-41.967,-64.762c-14.037,-21.659 -23.428,-45.532 -27.911,-70.951l-12.344,-70.016c-3.976,-22.557 -18.55,-42.202 -38.984,-52.555l-71.362,-36.159c-9.359,-4.74 -16.031,-13.737 -17.851,-24.068l-8.699,-49.315l10.069,-66.181l73.821,-13.018c22.601,-3.985 45.401,1.071 64.2,14.233l73.333,51.35c13.597,9.52 30.078,13.174 46.423,10.291l9.388,-1.655c11.472,-2.023 23.05,0.545 32.594,7.227l10.828,7.582c12.478,8.74 19.566,23.608 18.492,38.803l-3.745,53.07c-0.22,3.137 -2.538,5.707 -5.633,6.254l-13.092,2.308c-19.739,3.478 -34.978,19.141 -37.917,38.966c-0.05,0.344 -0.092,0.688 -0.124,1.034l-5.081,53.533c-0.992,10.44 -5.713,20.179 -13.295,27.421l-38.036,36.336c-4.79,4.579 -6.976,11.251 -5.826,17.777Zm540.218,-139.005c-12.55,-1.717 -23.959,-8.787 -31.045,-19.618l-46.039,-70.357c-11.137,-17.023 -18.576,-35.812 -22.111,-55.846l-12.333,-69.939c-3.861,-21.907 -16.025,-40.995 -34.246,-53.753c-18.22,-12.758 -40.314,-17.659 -62.223,-13.794l-1.558,0.274c-21.657,3.817 -44.392,0.448 -64.012,-9.492l-3.531,-1.786c-28.576,-14.48 -48.958,-41.957 -54.519,-73.504c-2.271,-12.877 -2.066,-25.897 0.608,-38.695l9.698,-46.412c3.669,-17.56 17.453,-30.916 35.117,-34.036l48.055,-8.473c19.109,-3.37 38.778,-1.479 56.9,5.462l44.841,17.179c29.892,11.454 64.166,4.569 87.316,-17.545l12.216,-11.669c6.247,-5.97 14.05,-9.916 22.555,-11.417l26.268,-4.631c20.62,45.304 35.666,93.51 44.537,143.817c22.799,129.298 2.721,259.528 -56.494,374.235Z" style="fill-rule:nonzero;"/>
        <path d="M1767.29,1674.31c4.303,-0 8.637,-1.396 12.278,-4.27l31.965,-25.244c8.592,-6.786 10.059,-19.254 3.271,-27.849c-6.786,-8.591 -19.254,-10.056 -27.849,-3.27l-31.965,25.244c-8.592,6.785 -10.059,19.256 -3.27,27.848c3.908,4.955 9.71,7.541 15.57,7.541Z" style="fill-rule:nonzero;"/>
        <path d="M2185.13,1580.8c1.697,9.621 10.061,16.387 19.502,16.387c1.143,0 2.303,-0.101 3.466,-0.304c10.783,-1.9 17.985,-12.184 16.082,-22.968l-7.345,-41.655c-1.9,-10.786 -12.176,-17.985 -22.967,-16.083c-10.784,1.9 -17.985,12.184 -16.083,22.968l7.345,41.655Z" style="fill-rule:nonzero;"/>
    </g>
</svg>
